Nobile-Bold.ufo
<glyph name="exclam" format="1">
  <advance width="727"/>
  <unicode hex="0021"/>
  <outline>
    <contour>
      <point x="370" y="0" type="curve" smooth="yes"/>
      <point x="495" y="0"/>
      <point x="601" y="98"/>
      <point x="601" y="225" type="curve" smooth="yes"/>
      <point x="601" y="353"/>
      <point x="497" y="449"/>
      <point x="370" y="449" type="curve" smooth="yes"/>
      <point x="240" y="449"/>
      <point x="146" y="348"/>
      <point x="146" y="225" type="curve" smooth="yes"/>
      <point x="146" y="98"/>
      <point x="244" y="0"/>
    </contour>
    <contour>
      <point x="251" y="622" type="line"/>
      <point x="473" y="622" type="line"/>
      <point x="563" y="1578" type="line"/>
      <point x="151" y="1578" type="line"/>
    </contour>
  </outline>
</glyph>
<glyph name="numbersign" format="1">
  <advance width="1417"/>
  <unicode hex="0023"/>
  <outline>
    <contour>
      <point x="168" y="0" type="line"/>
      <point x="410" y="0" type="line"/>
      <point x="720" y="1578" type="line"/>
      <point x="460" y="1578" type="line"/>
    </contour>
    <contour>
      <point x="96" y="497" type="line"/>
      <point x="1334" y="497" type="line"/>
      <point x="1334" y="660" type="line"/>
      <point x="96" y="660" type="line"/>
    </contour>
    <contour>
      <point x="126" y="897" type="line"/>
      <point x="1364" y="897" type="line"/>
      <point x="1364" y="1060" type="line"/>
      <point x="126" y="1060" type="line"/>
    </contour>
    <contour>
      <point x="738" y="0" type="line"/>
      <point x="980" y="0" type="line"/>
      <point x="1290" y="1578" type="line"/>
      <point x="1030" y="1578" type="line"/>
    </contour>
  </outline>
</glyph>
<glyph name="ampersand" format="1">
  <advance width="1879"/>
  <unicode hex="0026"/>
  <outline>
    <contour>
      <point x="897" y="-40" type="curve" smooth="yes"/>
      <point x="1223" y="-40"/>
      <point x="1379" y="35"/>
      <point x="1486" y="139" type="curve"/>
      <point x="1736" y="-72" type="line"/>
      <point x="1908" y="144" type="line"/>
      <point x="1626" y="388" type="line"/>
      <point x="1663" y="507"/>
      <point x="1682" y="770"/>
      <point x="1682" y="932" type="curve"/>
      <point x="1347" y="942" type="line"/>
      <point x="1347" y="851"/>
      <point x="1353" y="669"/>
      <point x="1353" y="610" type="curve"/>
      <point x="1047" y="893" type="line"/>
      <point x="1249" y="1042"/>
      <point x="1353" y="1151"/>
      <point x="1353" y="1334" type="curve" smooth="yes"/>
      <point x="1353" y="1525"/>
      <point x="1166" y="1677"/>
      <point x="874" y="1677" type="curve" smooth="yes"/>
      <point x="562" y="1677"/>
      <point x="389" y="1518"/>
      <point x="389" y="1316" type="curve" smooth="yes"/>
      <point x="389" y="1194"/>
      <point x="453" y="1055"/>
      <point x="589" y="926" type="curve"/>
      <point x="405" y="836"/>
      <point x="211" y="738"/>
      <point x="211" y="450" type="curve" smooth="yes"/>
      <point x="211" y="104"/>
      <point x="499" y="-40"/>
    </contour>
    <contour>
      <point x="897" y="276" type="curve" smooth="yes"/>
      <point x="659" y="276"/>
      <point x="575" y="368"/>
      <point x="575" y="475" type="curve" smooth="yes"/>
      <point x="575" y="581"/>
      <point x="644" y="673"/>
      <point x="790" y="741" type="curve"/>
      <point x="1233" y="348" type="line"/>
      <point x="1194" y="319"/>
      <point x="1122" y="276"/>
    </contour>
    <contour>
      <point x="882" y="1047" type="curve"/>
      <point x="812" y="1091"/>
      <point x="717" y="1188"/>
      <point x="717" y="1289" type="curve" smooth="yes"/>
      <point x="717" y="1366"/>
      <point x="763" y="1417"/>
      <point x="886" y="1417" type="curve" smooth="yes"/>
      <point x="998" y="1417"/>
      <point x="1051" y="1369"/>
      <point x="1051" y="1280" type="curve" smooth="yes"/>
      <point x="1051" y="1168"/>
      <point x="969" y="1092"/>
    </contour>
  </outline>
</glyph>
<glyph name="hyphen" format="1">
  <advance width="1196"/>
  <unicode hex="002D"/>
  <unicode hex="2015"/>
  <outline>
    <contour>
      <point x="169" y="601" type="line"/>
      <point x="1008" y="601" type="line"/>
      <point x="1008" y="883" type="line"/>
      <point x="169" y="883" type="line"/>
    </contour>
    <contour>
      <point x="586" y="750" type="move" name="_mid"/>
    </contour>
  </outline>
</glyph>
<glyph name="slash" format="1">
  <advance width="988"/>
  <unicode hex="002F"/>
  <unicode hex="2215"/>
  <outline>
    <contour>
      <point x="388" y="-95" type="line"/>
      <point x="945" y="1583" type="line"/>
      <point x="621" y="1682" type="line"/>
      <point x="71" y="2" type="line"/>
    </contour>
  </outline>
</glyph>
<glyph name="two" format="1">
  <advance width="1206"/>
  <unicode hex="0032"/>
  <outline>
    <contour>
      <point x="173" y="0" type="line"/>
      <point x="1048" y="0" type="line"/>
      <point x="1048" y="307" type="line"/>
      <point x="740" y="307" type="line"/>
      <point x="850" y="398" type="line" smooth="yes"/>
      <point x="1068" y="578"/>
      <point x="1091" y="673"/>
      <point x="1091" y="824" type="curve" smooth="yes"/>
      <point x="1091" y="1079"/>
      <point x="878" y="1180"/>
      <point x="632" y="1180" type="curve" smooth="yes"/>
      <point x="452" y="1180"/>
      <point x="255" y="1126"/>
      <point x="112" y="1041" type="curve"/>
      <point x="213" y="767" type="line"/>
      <point x="316" y="825"/>
      <point x="448" y="869"/>
      <point x="548" y="869" type="curve" smooth="yes"/>
      <point x="631" y="869"/>
      <point x="692" y="838"/>
      <point x="692" y="757" type="curve" smooth="yes"/>
      <point x="692" y="667"/>
      <point x="524" y="540"/>
      <point x="466" y="491" type="curve" smooth="yes"/>
      <point x="173" y="238" type="line"/>
    </contour>
  </outline>
</glyph>
<glyph name="three" format="1">
  <advance width="1253"/>
  <unicode hex="0033"/>
  <outline>
    <contour>
      <point x="603" y="-206" type="curve" smooth="yes"/>
      <point x="863" y="-206"/>
      <point x="1083" y="-92"/>
      <point x="1083" y="210" type="curve" smooth="yes"/>
      <point x="1083" y="273"/>
      <point x="1053" y="484"/>
      <point x="826" y="522" type="curve"/>
      <point x="954" y="552"/>
      <point x="1031" y="686"/>
      <point x="1035" y="803" type="curve" smooth="yes"/>
      <point x="1044" y="1069"/>
      <point x="842" y="1180"/>
      <point x="596" y="1180" type="curve" smooth="yes"/>
      <point x="445" y="1179"/>
      <point x="274" y="1136"/>
      <point x="132" y="1063" type="curve"/>
      <point x="262" y="797" type="line"/>
      <point x="358" y="850"/>
      <point x="450" y="875"/>
      <point x="522" y="875" type="curve" smooth="yes"/>
      <point x="633" y="875"/>
      <point x="670" y="821"/>
      <point x="670" y="763" type="curve" smooth="yes"/>
      <point x="670" y="673"/>
      <point x="582" y="630"/>
      <point x="409" y="630" type="curve"/>
      <point x="409" y="380" type="line"/>
      <point x="599" y="387"/>
      <point x="690" y="327"/>
      <point x="690" y="231" type="curve" smooth="yes"/>
      <point x="690" y="135"/>
      <point x="617" y="94"/>
      <point x="518" y="94" type="curve" smooth="yes"/>
      <point x="442" y="94"/>
      <point x="351" y="118"/>
      <point x="266" y="162" type="curve"/>
      <point x="170" y="-116" type="line"/>
      <point x="306" y="-172"/>
      <point x="461" y="-206"/>
    </contour>
  </outline>
</glyph>
<glyph name="four" format="1">
  <advance width="1292"/>
  <unicode hex="0034"/>
  <outline>
    <contour>
      <point x="663" y="-200" type="line"/>
      <point x="996" y="-200" type="line"/>
      <point x="996" y="56" type="line"/>
      <point x="1174" y="56" type="line"/>
      <point x="1174" y="360" type="line"/>
      <point x="996" y="360" type="line"/>
      <point x="996" y="1144" type="line"/>
      <point x="709" y="1220" type="line"/>
      <point x="74" y="281" type="line"/>
      <point x="120" y="56" type="line"/>
      <point x="663" y="56" type="line"/>
    </contour>
    <contour>
      <point x="464" y="358" type="line"/>
      <point x="663" y="657" type="line"/>
      <point x="663" y="358" type="line"/>
    </contour>
  </outline>
</glyph>
<glyph name="six" format="1">
  <advance width="1279"/>
  <unicode hex="0036"/>
  <outline>
    <contour>
      <point x="694" y="-78" type="curve" smooth="yes"/>
      <point x="1015" y="-78"/>
      <point x="1195" y="125"/>
      <point x="1195" y="406" type="curve" smooth="yes"/>
      <point x="1195" y="662"/>
      <point x="1032" y="885"/>
      <point x="729" y="885" type="curve" smooth="yes"/>
      <point x="650" y="885"/>
      <point x="560" y="848"/>
      <point x="530" y="838" type="curve"/>
      <point x="621" y="959"/>
      <point x="838" y="1130"/>
      <point x="1026" y="1143" type="curve"/>
      <point x="932" y="1453" type="line"/>
      <point x="533" y="1351"/>
      <point x="125" y="1019"/>
      <point x="125" y="468" type="curve" smooth="yes"/>
      <point x="125" y="166"/>
      <point x="346" y="-78"/>
    </contour>
    <contour>
      <point x="689" y="212" type="curve" smooth="yes"/>
      <point x="529" y="212"/>
      <point x="471" y="325"/>
      <point x="471" y="440" type="curve" smooth="yes"/>
      <point x="471" y="476"/>
      <point x="477" y="513"/>
      <point x="487" y="547" type="curve"/>
      <point x="544" y="586"/>
      <point x="624" y="606"/>
      <point x="687" y="606" type="curve" smooth="yes"/>
      <point x="804" y="606"/>
      <point x="860" y="509"/>
      <point x="860" y="412" type="curve" smooth="yes"/>
      <point x="860" y="312"/>
      <point x="802" y="212"/>
    </contour>
  </outline>
</glyph>
<glyph name="nine" format="1">
  <advance width="1277"/>
  <unicode hex="0039"/>
  <outline>
    <contour>
      <point x="382" y="-351" type="line"/>
      <point x="788" y="-259"/>
      <point x="1190" y="55"/>
      <point x="1190" y="593" type="curve" smooth="yes"/>
      <point x="1190" y="836"/>
      <point x="1095" y="1180"/>
      <point x="630" y="1180" type="curve" smooth="yes"/>
      <point x="309" y="1180"/>
      <point x="119" y="977"/>
      <point x="119" y="696" type="curve" smooth="yes"/>
      <point x="119" y="440"/>
      <point x="282" y="217"/>
      <point x="585" y="217" type="curve" smooth="yes"/>
      <point x="664" y="217"/>
      <point x="754" y="240"/>
      <point x="784" y="264" type="curve"/>
      <point x="691" y="122"/>
      <point x="501" y="5"/>
      <point x="283" y="-44" type="curve"/>
    </contour>
    <contour>
      <point x="627" y="496" type="curve" smooth="yes"/>
      <point x="510" y="496"/>
      <point x="454" y="593"/>
      <point x="454" y="690" type="curve" smooth="yes"/>
      <point x="454" y="790"/>
      <point x="512" y="890"/>
      <point x="625" y="890" type="curve" smooth="yes"/>
      <point x="785" y="890"/>
      <point x="843" y="777"/>
      <point x="843" y="662" type="curve" smooth="yes"/>
      <point x="843" y="626"/>
      <point x="837" y="589"/>
      <point x="827" y="555" type="curve"/>
      <point x="770" y="516"/>
      <point x="690" y="496"/>
    </contour>
  </outline>
</glyph>
<glyph name="colon" format="1">
  <advance width="848"/>
  <unicode hex="003A"/>
  <outline>
    <contour>
      <point x="200" y="0" type="line"/>
      <point x="649" y="0" type="line"/>
      <point x="649" y="490" type="line"/>
      <point x="200" y="490" type="line"/>
    </contour>
    <contour>
      <point x="200" y="795" type="line"/>
      <point x="649" y="795" type="line"/>
      <point x="649" y="1280" type="line"/>
      <point x="200" y="1280" type="line"/>
    </contour>
  </outline>
</glyph>
<glyph name="C" format="1">
  <advance width="1341"/>
  <unicode hex="0043"/>
  <outline>
    <contour>
      <point x="852" y="-18" type="curve" smooth="yes"/>
      <point x="1094" y="-18"/>
      <point x="1247" y="36"/>
      <point x="1300" y="92" type="curve"/>
      <point x="1186" y="375" type="line"/>
      <point x="1075" y="295"/>
      <point x="1009" y="286"/>
      <point x="909" y="293" type="curve" smooth="yes"/>
      <point x="755" y="300"/>
      <point x="538" y="421"/>
      <point x="538" y="781" type="curve" smooth="yes"/>
      <point x="538" y="1234"/>
      <point x="819" y="1287"/>
      <point x="955" y="1287" type="curve" smooth="yes"/>
      <point x="1025" y="1287"/>
      <point x="1087" y="1268"/>
      <point x="1196" y="1196" type="curve"/>
      <point x="1312" y="1481" type="line"/>
      <point x="1184" y="1569"/>
      <point x="1042" y="1596"/>
      <point x="909" y="1596" type="curve" smooth="yes"/>
      <point x="618" y="1596"/>
      <point x="97" y="1470"/>
      <point x="97" y="792" type="curve" smooth="yes"/>
      <point x="97" y="250"/>
      <point x="447" y="-18"/>
    </contour>
    <contour>
      <point x="851" y="1578" type="move" name="top"/>
    </contour>
    <contour>
      <point x="759" y="0" type="move" name="bot"/>
    </contour>
  </outline>
</glyph>
<glyph name="D" format="1">
  <advance width="1678"/>
  <unicode hex="0044"/>
  <outline>
    <contour>
      <point x="612" y="297" type="line"/>
      <point x="612" y="1283" type="line"/>
      <point x="665" y="1283" type="line" smooth="yes"/>
      <point x="1018" y="1283"/>
      <point x="1141" y="1156"/>
      <point x="1141" y="783" type="curve" smooth="yes"/>
      <point x="1141" y="410"/>
      <point x="1020" y="297"/>
      <point x="665" y="297" type="curve" smooth="yes"/>
    </contour>
    <contour>
      <point x="176" y="0" type="line"/>
      <point x="704" y="0" type="line" smooth="yes"/>
      <point x="1236" y="0"/>
      <point x="1581" y="219"/>
      <point x="1581" y="780" type="curve" smooth="yes"/>
      <point x="1581" y="1349"/>
      <point x="1250" y="1578"/>
      <point x="704" y="1578" type="curve" smooth="yes"/>
      <point x="176" y="1578" type="line"/>
    </contour>
    <contour>
      <point x="827" y="1578" type="move" name="top"/>
    </contour>
    <contour>
      <point x="417" y="817" type="move" name="mid"/>
    </contour>
  </outline>
</glyph>
<glyph name="E" format="1">
  <advance width="1333"/>
  <unicode hex="0045"/>
  <outline>
    <contour>
      <point x="176" y="0" type="line"/>
      <point x="1225" y="0" type="line"/>
      <point x="1225" y="317" type="line"/>
      <point x="612" y="317" type="line"/>
      <point x="612" y="675" type="line"/>
      <point x="1165" y="675" type="line"/>
      <point x="1165" y="944" type="line"/>
      <point x="612" y="944" type="line"/>
      <point x="612" y="1262" type="line"/>
      <point x="1233" y="1262" type="line"/>
      <point x="1233" y="1578" type="line"/>
      <point x="176" y="1578" type="line"/>
    </contour>
    <contour>
      <point x="722" y="1578" type="move" name="top"/>
    </contour>
    <contour>
      <point x="982" y="0" type="move" name="ogonek"/>
    </contour>
    <contour>
      <point x="769" y="0" type="move" name="bot"/>
    </contour>
  </outline>
</glyph>
<glyph name="G" format="1">
  <advance width="1588"/>
  <unicode hex="0047"/>
  <outline>
    <contour>
      <point x="791" y="-18" type="curve" smooth="yes"/>
      <point x="954" y="-18"/>
      <point x="1064" y="77"/>
      <point x="1119" y="156" type="curve"/>
      <point x="1167" y="0" type="line"/>
      <point x="1435" y="0" type="line"/>
      <point x="1435" y="905" type="line"/>
      <point x="744" y="905" type="line"/>
      <point x="744" y="644" type="line"/>
      <point x="1085" y="644" type="line"/>
      <point x="1085" y="321" type="line"/>
      <point x="1011" y="298"/>
      <point x="937" y="283"/>
      <point x="869" y="283" type="curve" smooth="yes"/>
      <point x="683" y="283"/>
      <point x="538" y="395"/>
      <point x="538" y="763" type="curve" smooth="yes"/>
      <point x="538" y="1135"/>
      <point x="702" y="1283"/>
      <point x="925" y="1283" type="curve" smooth="yes"/>
      <point x="1037" y="1283"/>
      <point x="1165" y="1245"/>
      <point x="1293" y="1180" type="curve"/>
      <point x="1405" y="1453" type="line"/>
      <point x="1251" y="1544"/>
      <point x="1061" y="1596"/>
      <point x="875" y="1596" type="curve" smooth="yes"/>
      <point x="479" y="1596"/>
      <point x="97" y="1359"/>
      <point x="97" y="764" type="curve" smooth="yes"/>
      <point x="97" y="227"/>
      <point x="392" y="-18"/>
    </contour>
    <contour>
      <point x="882" y="1578" type="move" name="top"/>
    </contour>
    <contour>
      <point x="829" y="0" type="move" name="bot"/>
    </contour>
  </outline>
</glyph>
<glyph name="H" format="1">
  <advance width="1677"/>
  <unicode hex="0048"/>
  <outline>
    <contour>
      <point x="176" y="0" type="line"/>
      <point x="612" y="0" type="line"/>
      <point x="612" y="681" type="line"/>
      <point x="1065" y="681" type="line"/>
      <point x="1065" y="0" type="line"/>
      <point x="1501" y="0" type="line"/>
      <point x="1501" y="1578" type="line"/>
      <point x="1065" y="1578" type="line"/>
      <point x="1065" y="950" type="line"/>
      <point x="612" y="950" type="line"/>
      <point x="612" y="1578" type="line"/>
      <point x="176" y="1578" type="line"/>
    </contour>
    <contour>
      <point x="862" y="1578" type="move" name="top"/>
    </contour>
  </outline>
</glyph>
<glyph name="I" format="1">
  <advance width="897"/>
  <unicode hex="0049"/>
  <outline>
    <contour>
      <point x="71" y="0" type="line"/>
      <point x="826" y="0" type="line"/>
      <point x="826" y="288" type="line"/>
      <point x="669" y="288" type="line"/>
      <point x="669" y="1292" type="line"/>
      <point x="826" y="1292" type="line"/>
      <point x="826" y="1578" type="line"/>
      <point x="71" y="1578" type="line"/>
      <point x="71" y="1292" type="line"/>
      <point x="228" y="1292" type="line"/>
      <point x="228" y="288" type="line"/>
      <point x="71" y="288" type="line"/>
    </contour>
    <contour>
      <point x="483" y="1578" type="move" name="top"/>
    </contour>
    <contour>
      <point x="482" y="0" type="move" name="ogonek"/>
    </contour>
  </outline>
</glyph>
<glyph name="J" format="1">
  <advance width="959"/>
  <unicode hex="004A"/>
  <outline>
    <contour>
      <point x="145" y="-84" type="line"/>
      <point x="552" y="-72"/>
      <point x="786" y="67"/>
      <point x="786" y="504" type="curve" smooth="yes"/>
      <point x="786" y="1578" type="line"/>
      <point x="348" y="1578" type="line"/>
      <point x="348" y="516" type="line" smooth="yes"/>
      <point x="348" y="282"/>
      <point x="246" y="222"/>
      <point x="33" y="199" type="curve"/>
    </contour>
    <contour>
      <point x="582" y="1578" type="move" name="top"/>
    </contour>
  </outline>
</glyph>
<glyph name="K" format="1">
  <advance width="1525"/>
  <unicode hex="004B"/>
  <outline>
    <contour>
      <point x="174" y="0" type="line"/>
      <point x="610" y="0" type="line"/>
      <point x="610" y="635" type="line"/>
      <point x="619" y="635" type="line"/>
      <point x="1039" y="0" type="line"/>
      <point x="1563" y="0" type="line"/>
      <point x="1026" y="778" type="line"/>
      <point x="1533" y="1578" type="line"/>
      <point x="1040" y="1578" type="line"/>
      <point x="634" y="920" type="line"/>
      <point x="610" y="920" type="line"/>
      <point x="610" y="1578" type="line"/>
      <point x="174" y="1578" type="line"/>
    </contour>
    <contour>
      <point x="802" y="1578" type="move" name="top"/>
    </contour>
    <contour>
      <point x="819" y="0" type="move" name="bot"/>
    </contour>
  </outline>
</glyph>
<glyph name="L" format="1">
  <advance width="1205"/>
  <unicode hex="004C"/>
  <outline>
    <contour>
      <point x="174" y="0" type="line"/>
      <point x="1184" y="0" type="line"/>
      <point x="1184" y="316" type="line"/>
      <point x="609" y="316" type="line"/>
      <point x="609" y="1578" type="line"/>
      <point x="174" y="1578" type="line"/>
    </contour>
    <contour>
      <point x="432" y="1578" type="move" name="top"/>
    </contour>
    <contour>
      <point x="400" y="933" type="move" name="mid"/>
    </contour>
    <contour>
      <point x="679" y="0" type="move" name="bot"/>
    </contour>
  </outline>
</glyph>
<glyph name="M" format="1">
  <advance width="2072"/>
  <unicode hex="004D"/>
  <outline>
    <contour>
      <point x="174" y="0" type="line"/>
      <point x="531" y="0" type="line"/>
      <point x="531" y="963" type="line"/>
      <point x="835" y="0" type="line"/>
      <point x="1248" y="0" type="line"/>
      <point x="1541" y="963" type="line"/>
      <point x="1541" y="0" type="line"/>
      <point x="1898" y="0" type="line"/>
      <point x="1898" y="1578" type="line"/>
      <point x="1402" y="1578" type="line"/>
      <point x="1027" y="485" type="line"/>
      <point x="668" y="1578" type="line"/>
      <point x="174" y="1578" type="line"/>
    </contour>
    <contour>
      <point x="1042" y="1578" type="move" name="top"/>
    </contour>
  </outline>
</glyph>
<glyph name="N" format="1">
  <advance width="1710"/>
  <unicode hex="004E"/>
  <outline>
    <contour>
      <point x="174" y="0" type="line"/>
      <point x="563" y="0" type="line"/>
      <point x="563" y="946" type="line"/>
      <point x="1109" y="0" type="line"/>
      <point x="1536" y="0" type="line"/>
      <point x="1536" y="1578" type="line"/>
      <point x="1149" y="1578" type="line"/>
      <point x="1149" y="652" type="line"/>
      <point x="619" y="1578" type="line"/>
      <point x="174" y="1578" type="line"/>
    </contour>
    <contour>
      <point x="882" y="1578" type="move" name="top"/>
    </contour>
    <contour>
      <point x="919" y="0" type="move" name="bot"/>
    </contour>
  </outline>
</glyph>
<glyph name="O" format="1">
  <advance width="1670"/>
  <unicode hex="004F"/>
  <outline>
    <contour>
      <point x="836" y="281" type="curve" smooth="yes"/>
      <point x="608" y="281"/>
      <point x="538" y="492"/>
      <point x="538" y="791" type="curve" smooth="yes"/>
      <point x="538" y="1090"/>
      <point x="608" y="1290"/>
      <point x="836" y="1290" type="curve" smooth="yes"/>
      <point x="1061" y="1290"/>
      <point x="1132" y="1092"/>
      <point x="1132" y="791" type="curve" smooth="yes"/>
      <point x="1132" y="501"/>
      <point x="1068" y="281"/>
    </contour>
    <contour>
      <point x="836" y="-18" type="curve" smooth="yes"/>
      <point x="1328" y="-18"/>
      <point x="1572" y="267"/>
      <point x="1572" y="791" type="curve" smooth="yes"/>
      <point x="1572" y="1323"/>
      <point x="1311" y="1596"/>
      <point x="836" y="1596" type="curve" smooth="yes"/>
      <point x="358" y="1596"/>
      <point x="98" y="1336"/>
      <point x="98" y="791" type="curve" smooth="yes"/>
      <point x="98" y="267"/>
      <point x="342" y="-18"/>
    </contour>
    <contour>
      <point x="852" y="1578" type="move" name="top"/>
    </contour>
    <contour>
      <point x="902" y="0" type="move" name="ogonek"/>
    </contour>
  </outline>
</glyph>
<glyph name="P" format="1">
  <advance width="1512"/>
  <unicode hex="0050"/>
  <outline>
    <contour>
      <point x="176" y="0" type="line"/>
      <point x="612" y="0" type="line"/>
      <point x="612" y="638" type="line"/>
      <point x="649" y="638" type="line" smooth="yes"/>
      <point x="1246" y="638"/>
      <point x="1439" y="768"/>
      <point x="1439" y="1175" type="curve" smooth="yes"/>
      <point x="1439" y="1480"/>
      <point x="1254" y="1578"/>
      <point x="681" y="1578" type="curve" smooth="yes"/>
      <point x="176" y="1578" type="line"/>
    </contour>
    <contour>
      <point x="612" y="914" type="line"/>
      <point x="612" y="1322" type="line"/>
      <point x="663" y="1322" type="line" smooth="yes"/>
      <point x="917" y="1322"/>
      <point x="999" y="1277"/>
      <point x="999" y="1136" type="curve" smooth="yes"/>
      <point x="999" y="968"/>
      <point x="914" y="914"/>
      <point x="649" y="914" type="curve" smooth="yes"/>
    </contour>
    <contour>
      <point x="634" y="1578" type="move" name="top"/>
    </contour>
  </outline>
</glyph>
<glyph name="Q" format="1">
  <advance width="1641"/>
  <unicode hex="0051"/>
  <outline>
    <contour>
      <point x="1104" y="-458" type="line"/>
      <point x="1320" y="-261" type="line"/>
      <point x="1106.52" y="17.294" type="line"/>
      <point x="1417.51" y="108.426"/>
      <point x="1572" y="374.052"/>
      <point x="1572" y="791" type="curve" smooth="yes"/>
      <point x="1572" y="1323"/>
      <point x="1311" y="1596"/>
      <point x="836" y="1596" type="curve" smooth="yes"/>
      <point x="358" y="1596"/>
      <point x="98" y="1336"/>
      <point x="98" y="791" type="curve" smooth="yes"/>
      <point x="98" y="298.474"/>
      <point x="313.57" y="17.0993"/>
      <point x="749.69" y="-14.9248" type="curve"/>
    </contour>
    <contour>
      <point x="836" y="281" type="curve" smooth="yes"/>
      <point x="608" y="281"/>
      <point x="538" y="492"/>
      <point x="538" y="791" type="curve" smooth="yes"/>
      <point x="538" y="1090"/>
      <point x="608" y="1290"/>
      <point x="836" y="1290" type="curve" smooth="yes"/>
      <point x="1061" y="1290"/>
      <point x="1132" y="1092"/>
      <point x="1132" y="791" type="curve" smooth="yes"/>
      <point x="1132" y="501"/>
      <point x="1068" y="281"/>
    </contour>
    <contour>
      <point x="852" y="1578" type="move" name="top"/>
    </contour>
    <contour>
      <point x="902" y="0" type="move" name="ogonek"/>
    </contour>
  </outline>
</glyph>
<glyph name="R" format="1">
  <advance width="1552"/>
  <unicode hex="0052"/>
  <outline>
    <contour>
      <point x="174" y="0" type="line"/>
      <point x="610" y="0" type="line"/>
      <point x="610" y="640" type="line"/>
      <point x="659" y="640" type="line" smooth="yes"/>
      <point x="814" y="640"/>
      <point x="946" y="591"/>
      <point x="970" y="403" type="curve" smooth="yes"/>
      <point x="1018" y="0" type="line"/>
      <point x="1455" y="0" type="line"/>
      <point x="1407" y="498" type="line" smooth="yes"/>
      <point x="1385" y="730"/>
      <point x="1224" y="779"/>
      <point x="976" y="805" type="curve"/>
      <point x="1247" y="811"/>
      <point x="1441" y="882"/>
      <point x="1441" y="1164" type="curve" smooth="yes"/>
      <point x="1441" y="1381"/>
      <point x="1435" y="1578"/>
      <point x="708" y="1578" type="curve" smooth="yes"/>
      <point x="174" y="1578" type="line"/>
    </contour>
    <contour>
      <point x="610" y="913" type="line"/>
      <point x="610" y="1322" type="line"/>
      <point x="737" y="1322" type="line" smooth="yes"/>
      <point x="951" y="1322"/>
      <point x="996" y="1246"/>
      <point x="996" y="1108" type="curve" smooth="yes"/>
      <point x="996" y="959"/>
      <point x="884" y="913"/>
      <point x="701" y="913" type="curve" smooth="yes"/>
    </contour>
    <contour>
      <point x="702" y="1578" type="move" name="top"/>
    </contour>
    <contour>
      <point x="799" y="0" type="move" name="bot"/>
    </contour>
  </outline>
</glyph>
<glyph name="S" format="1">
  <advance width="1369"/>
  <unicode hex="0053"/>
  <outline>
    <contour>
      <point x="712" y="-18" type="curve" smooth="yes"/>
      <point x="1024" y="-18"/>
      <point x="1285" y="121"/>
      <point x="1285" y="433" type="curve" smooth="yes"/>
      <point x="1285" y="635"/>
      <point x="1231" y="761"/>
      <point x="924" y="913" type="curve" smooth="yes"/>
      <point x="631" y="1057" type="line" smooth="yes"/>
      <point x="528" y="1108"/>
      <point x="521" y="1139"/>
      <point x="521" y="1166" type="curve" smooth="yes"/>
      <point x="521" y="1235"/>
      <point x="588" y="1260"/>
      <point x="680" y="1260" type="curve" smooth="yes"/>
      <point x="814" y="1260"/>
      <point x="1001" y="1207"/>
      <point x="1112" y="1163" type="curve"/>
      <point x="1238" y="1464" type="line"/>
      <point x="1080" y="1544"/>
      <point x="867" y="1596"/>
      <point x="668" y="1596" type="curve" smooth="yes"/>
      <point x="371" y="1596"/>
      <point x="106" y="1479"/>
      <point x="106" y="1164" type="curve" smooth="yes"/>
      <point x="106" y="959"/>
      <point x="167" y="856"/>
      <point x="414" y="731" type="curve" smooth="yes"/>
      <point x="744" y="567" type="line" smooth="yes"/>
      <point x="906.885" y="483.538"/>
      <point x="878" y="439.333"/>
      <point x="878" y="416" type="curve" smooth="yes"/>
      <point x="878" y="340"/>
      <point x="804" y="310"/>
      <point x="704" y="310" type="curve" smooth="yes"/>
      <point x="552" y="310"/>
      <point x="341" y="380"/>
      <point x="239" y="467" type="curve"/>
      <point x="115" y="138" type="line"/>
      <point x="299" y="38"/>
      <point x="516" y="-18"/>
    </contour>
    <contour>
      <point x="709" y="1578" type="move" name="top"/>
    </contour>
    <contour>
      <point x="736" y="0" type="move" name="bot"/>
    </contour>
  </outline>
</glyph>
<glyph name="T" format="1">
  <advance width="1165"/>
  <unicode hex="0054"/>
  <outline>
    <contour>
      <point x="367" y="0" type="line"/>
      <point x="806" y="0" type="line"/>
      <point x="806" y="1261" type="line"/>
      <point x="1186" y="1261" type="line"/>
      <point x="1186" y="1578" type="line"/>
      <point x="-22" y="1578" type="line"/>
      <point x="-22" y="1261" type="line"/>
      <point x="367" y="1261" type="line"/>
    </contour>
    <contour>
      <point x="612" y="1578" type="move" name="top"/>
    </contour>
    <contour>
      <point x="599" y="0" type="move" name="bot"/>
    </contour>
  </outline>
</glyph>
<glyph name="U" format="1">
  <advance width="1654"/>
  <unicode hex="0055"/>
  <outline>
    <contour>
      <point x="828" y="-23" type="curve" smooth="yes"/>
      <point x="1286" y="-23"/>
      <point x="1514" y="163"/>
      <point x="1514" y="732" type="curve" smooth="yes"/>
      <point x="1514" y="1578" type="line"/>
      <point x="1078" y="1578" type="line"/>
      <point x="1078" y="728" type="line" smooth="yes"/>
      <point x="1078" y="401"/>
      <point x="1025" y="291"/>
      <point x="816" y="291" type="curve" smooth="yes"/>
      <point x="605" y="291"/>
      <point x="577" y="402"/>
      <point x="577" y="728" type="curve" smooth="yes"/>
      <point x="577" y="1578" type="line"/>
      <point x="140" y="1578" type="line"/>
      <point x="140" y="732" type="line" smooth="yes"/>
      <point x="140" y="164"/>
      <point x="371" y="-23"/>
    </contour>
    <contour>
      <point x="832" y="1578" type="move" name="top"/>
    </contour>
    <contour>
      <point x="882" y="0" type="move" name="ogonek"/>
    </contour>
  </outline>
</glyph>
<glyph name="V" format="1">
  <advance width="1493"/>
  <unicode hex="0056"/>
  <outline>
    <contour>
      <point x="538" y="0" type="line"/>
      <point x="951" y="0" type="line"/>
      <point x="1443" y="1578" type="line"/>
      <point x="1033" y="1578" type="line"/>
      <point x="752" y="533" type="line"/>
      <point x="441" y="1578" type="line"/>
      <point x="38" y="1578" type="line"/>
    </contour>
  </outline>
</glyph>
<glyph name="W" format="1">
  <advance width="2083"/>
  <unicode hex="0057"/>
  <outline>
    <contour>
      <point x="384" y="0" type="line"/>
      <point x="844" y="0" type="line"/>
      <point x="1043" y="1183" type="line"/>
      <point x="1249" y="0" type="line"/>
      <point x="1707" y="0" type="line"/>
      <point x="2023" y="1578" type="line"/>
      <point x="1627" y="1578" type="line"/>
      <point x="1475" y="498" type="line"/>
      <point x="1291" y="1594" type="line"/>
      <point x="796" y="1594" type="line"/>
      <point x="618" y="498" type="line"/>
      <point x="458" y="1578" type="line"/>
      <point x="60" y="1578" type="line"/>
    </contour>
    <contour>
      <point x="1042" y="1578" type="move" name="top"/>
    </contour>
  </outline>
</glyph>
<glyph name="X" format="1">
  <advance width="1391"/>
  <unicode hex="0058"/>
  <outline>
    <contour>
      <point x="-26" y="0" type="line"/>
      <point x="432" y="0" type="line"/>
      <point x="382" y="-84"/>
      <point x="746" y="517"/>
      <point x="696" y="434" type="curve"/>
      <point x="959" y="0" type="line"/>
      <point x="1417" y="0" type="line"/>
      <point x="939" y="796" type="line"/>
      <point x="1417" y="1578" type="line"/>
      <point x="962" y="1578" type="line"/>
      <point x="696" y="1113" type="line"/>
      <point x="429" y="1578" type="line"/>
      <point x="-26" y="1578" type="line"/>
      <point x="452" y="796" type="line"/>
    </contour>
  </outline>
</glyph>
<glyph name="Y" format="1">
  <advance width="1345"/>
  <unicode hex="0059"/>
  <outline>
    <contour>
      <point x="467" y="0" type="line"/>
      <point x="876" y="0" type="line"/>
      <point x="876" y="503" type="line"/>
      <point x="1384" y="1578" type="line"/>
      <point x="939" y="1578" type="line"/>
      <point x="671" y="966" type="line"/>
      <point x="395" y="1578" type="line"/>
      <point x="-39" y="1578" type="line"/>
      <point x="467" y="503" type="line"/>
    </contour>
    <contour>
      <point x="682" y="1578" type="move" name="top"/>
    </contour>
  </outline>
</glyph>
<glyph name="Z" format="1">
  <advance width="1245"/>
  <unicode hex="005A"/>
  <outline>
    <contour>
      <point x="31" y="0" type="line"/>
      <point x="1180" y="0" type="line"/>
      <point x="1180" y="316" type="line"/>
      <point x="507" y="316" type="line"/>
      <point x="1178" y="1329" type="line"/>
      <point x="1178" y="1578" type="line"/>
      <point x="31" y="1578" type="line"/>
      <point x="31" y="1257" type="line"/>
      <point x="680" y="1257" type="line"/>
      <point x="31" y="278" type="line"/>
    </contour>
    <contour>
      <point x="612" y="1578" type="move" name="top"/>
    </contour>
  </outline>
</glyph>
<glyph name="bracketleft" format="1">
  <advance width="1059"/>
  <unicode hex="005B"/>
  <outline>
    <contour>
      <point x="176" y="-222" type="line"/>
      <point x="959" y="-222" type="line"/>
      <point x="959" y="86" type="line"/>
      <point x="562" y="86" type="line"/>
      <point x="562" y="1458" type="line"/>
      <point x="959" y="1458" type="line"/>
      <point x="959" y="1766" type="line"/>
      <point x="176" y="1766" type="line"/>
    </contour>
  </outline>
</glyph>
<glyph name="a" format="1">
  <advance width="1289"/>
  <unicode hex="0061"/>
  <outline>
    <contour>
      <point x="477" y="-18" type="curve" smooth="yes"/>
      <point x="657" y="-18"/>
      <point x="744" y="99"/>
      <point x="768" y="175" type="curve"/>
      <point x="834" y="0" type="line"/>
      <point x="1155" y="0" type="line"/>
      <point x="1155" y="680" type="line" smooth="yes"/>
      <point x="1155" y="1026"/>
      <point x="989" y="1180"/>
      <point x="657" y="1180" type="curve" smooth="yes"/>
      <point x="517" y="1180"/>
      <point x="338" y="1151"/>
      <point x="147" y="1085" type="curve"/>
      <point x="218" y="832" type="line"/>
      <point x="363" y="889"/>
      <point x="477" y="909"/>
      <point x="557" y="909" type="curve" smooth="yes"/>
      <point x="698" y="909"/>
      <point x="746" y="843"/>
      <point x="746" y="725" type="curve" smooth="yes"/>
      <point x="746" y="678" type="line"/>
      <point x="681" y="696"/>
      <point x="598" y="702"/>
      <point x="528" y="702" type="curve" smooth="yes"/>
      <point x="331" y="702"/>
      <point x="84" y="636"/>
      <point x="78" y="360" type="curve" smooth="yes"/>
      <point x="72" y="99"/>
      <point x="234" y="-18"/>
    </contour>
    <contour>
      <point x="545" y="225" type="curve" smooth="yes"/>
      <point x="463" y="231"/>
      <point x="429" y="287"/>
      <point x="423" y="359" type="curve" smooth="yes"/>
      <point x="414" y="474"/>
      <point x="510" y="506"/>
      <point x="609" y="506" type="curve" smooth="yes"/>
      <point x="644" y="506"/>
      <point x="712" y="501"/>
      <point x="746" y="494" type="curve"/>
      <point x="746" y="300" type="line"/>
      <point x="689" y="253"/>
      <point x="630" y="219"/>
    </contour>
    <contour>
      <point x="655" y="1162" type="move" name="top"/>
    </contour>
    <contour>
      <point x="980" y="0" type="move" name="ogonek"/>
    </contour>
  </outline>
</glyph>
<glyph name="b" format="1">
  <advance width="1426"/>
  <unicode hex="0062"/>
  <outline>
    <contour>
      <point x="851" y="-18" type="curve" smooth="yes"/>
      <point x="1097" y="-18"/>
      <point x="1344" y="166"/>
      <point x="1344" y="588" type="curve" smooth="yes"/>
      <point x="1344" y="982"/>
      <point x="1158" y="1180"/>
      <point x="901" y="1180" type="curve" smooth="yes"/>
      <point x="778.18" y="1180"/>
      <point x="662.476" y="1148.15"/>
      <point x="560" y="1075.38" type="curve"/>
      <point x="560" y="1647" type="line"/>
      <point x="146" y="1578" type="line"/>
      <point x="146" y="-3.28979e-06" type="line"/>
      <point x="432" y="-3.28979e-06" type="line"/>
      <point x="488.823" y="133.623" type="line"/>
      <point x="581.896" y="49.1057"/>
      <point x="704.845" y="-18"/>
    </contour>
    <contour>
      <point x="724" y="232" type="curve" smooth="yes"/>
      <point x="668.419" y="232"/>
      <point x="612.43" y="258.75"/>
      <point x="560" y="302.098" type="curve"/>
      <point x="560" y="848.631" type="line"/>
      <point x="634.538" y="909.884"/>
      <point x="696.299" y="928"/>
      <point x="760" y="928" type="curve" smooth="yes"/>
      <point x="861" y="928"/>
      <point x="932" y="852"/>
      <point x="932" y="585" type="curve" smooth="yes"/>
      <point x="932" y="303"/>
      <point x="816" y="232"/>
    </contour>
    <contour>
      <point x="854" y="1162" type="move" name="top"/>
    </contour>
  </outline>
</glyph>
<glyph name="e" format="1">
  <advance width="1256"/>
  <unicode hex="0065"/>
  <outline>
    <contour>
      <point x="720" y="-18" type="curve" smooth="yes"/>
      <point x="863" y="-18"/>
      <point x="1018" y="12"/>
      <point x="1155" y="97" type="curve"/>
      <point x="1056" y="342" type="line"/>
      <point x="964" y="294"/>
      <point x="877" y="260"/>
      <point x="770" y="260" type="curve" smooth="yes"/>
      <point x="648" y="260"/>
      <point x="513" y="303"/>
      <point x="500" y="478" type="curve"/>
      <point x="1155" y="478" type="line"/>
      <point x="1163" y="595" type="line" smooth="yes"/>
      <point x="1189" y="975"/>
      <point x="998" y="1180"/>
      <point x="693" y="1180" type="curve" smooth="yes"/>
      <point x="326" y="1180"/>
      <point x="82" y="959"/>
      <point x="82" y="573" type="curve" smooth="yes"/>
      <point x="82" y="199"/>
      <point x="309" y="-18"/>
    </contour>
    <contour>
      <point x="505" y="705" type="line"/>
      <point x="505" y="850"/>
      <point x="576" y="921"/>
      <point x="681" y="921" type="curve" smooth="yes"/>
      <point x="759" y="921"/>
      <point x="825" y="862"/>
      <point x="825" y="733" type="curve" smooth="yes"/>
      <point x="825" y="705" type="line"/>
    </contour>
    <contour>
      <point x="702" y="1162" type="move" name="top"/>
    </contour>
    <contour>
      <point x="782" y="0" type="move" name="ogonek"/>
    </contour>
  </outline>
</glyph>
<glyph name="g" format="1">
  <advance width="1273"/>
  <unicode hex="0067"/>
  <outline>
    <contour>
      <point x="516" y="-521" type="curve" smooth="yes"/>
      <point x="837" y="-535"/>
      <point x="1231" y="-491"/>
      <point x="1231" y="-168" type="curve" smooth="yes"/>
      <point x="1231" y="160"/>
      <point x="1053" y="238"/>
      <point x="821" y="238" type="curve" smooth="yes"/>
      <point x="517" y="238" type="line"/>
      <point x="513" y="245"/>
      <point x="504" y="265"/>
      <point x="504" y="298" type="curve" smooth="yes"/>
      <point x="504" y="326.593"/>
      <point x="516.617" y="347.616"/>
      <point x="521.808" y="355.056" type="curve"/>
      <point x="542.046" y="353.367"/>
      <point x="586.793" y="350"/>
      <point x="622" y="350" type="curve" smooth="yes"/>
      <point x="950" y="350"/>
      <point x="1115" y="510"/>
      <point x="1115" y="765" type="curve" smooth="yes"/>
      <point x="1115" y="847"/>
      <point x="1087" y="907"/>
      <point x="1063" y="939" type="curve"/>
      <point x="1280" y="954" type="line"/>
      <point x="1280" y="1188" type="line"/>
      <point x="1125" y="1189"/>
      <point x="1034" y="1175"/>
      <point x="896" y="1117" type="curve"/>
      <point x="820" y="1153"/>
      <point x="788" y="1180"/>
      <point x="596" y="1180" type="curve" smooth="yes"/>
      <point x="257" y="1180"/>
      <point x="97" y="1015"/>
      <point x="96" y="759" type="curve" smooth="yes"/>
      <point x="95" y="578"/>
      <point x="190" y="505"/>
      <point x="275" y="456" type="curve"/>
      <point x="262" y="448"/>
      <point x="139" y="328"/>
      <point x="139" y="178" type="curve" smooth="yes"/>
      <point x="139" y="98"/>
      <point x="214" y="45"/>
      <point x="263" y="22" type="curve"/>
      <point x="185" y="-22"/>
      <point x="82" y="-103"/>
      <point x="82" y="-213" type="curve" smooth="yes"/>
      <point x="82" y="-427"/>
      <point x="256" y="-510"/>
    </contour>
    <contour>
      <point x="600" y="-287" type="curve" smooth="yes"/>
      <point x="427" y="-287"/>
      <point x="416" y="-224"/>
      <point x="416" y="-147" type="curve" smooth="yes"/>
      <point x="416" y="-89"/>
      <point x="441" y="-42"/>
      <point x="460" y="-18" type="curve"/>
      <point x="704" y="-18" type="line" smooth="yes"/>
      <point x="837" y="-18"/>
      <point x="871" y="-35"/>
      <point x="871" y="-122" type="curve" smooth="yes"/>
      <point x="871" y="-302"/>
      <point x="705" y="-287"/>
    </contour>
    <contour>
      <point x="616" y="606" type="curve" smooth="yes"/>
      <point x="506" y="606"/>
      <point x="445" y="649"/>
      <point x="445" y="769" type="curve" smooth="yes"/>
      <point x="445" y="896"/>
      <point x="506" y="944"/>
      <point x="630" y="944" type="curve" smooth="yes"/>
      <point x="749" y="944"/>
      <point x="800" y="885"/>
      <point x="800" y="770" type="curve" smooth="yes"/>
      <point x="800" y="651"/>
      <point x="736" y="602"/>
    </contour>
    <contour>
      <point x="612" y="1162" type="move" name="top"/>
    </contour>
  </outline>
</glyph>
<glyph name="j" format="1">
  <advance width="799"/>
  <unicode hex="006A"/>
  <outline>
    <contour>
      <point x="148" y="-499" type="line"/>
      <point x="463" y="-423"/>
      <point x="641" y="-315"/>
      <point x="641" y="0" type="curve" smooth="yes"/>
      <point x="641" y="1162" type="line"/>
      <point x="229" y="1162" type="line"/>
      <point x="229" y="140" type="line" smooth="yes"/>
      <point x="229" y="-91"/>
      <point x="229" y="-126"/>
      <point x="12" y="-217" type="curve"/>
    </contour>
    <contour>
      <point x="434" y="1335" type="curve" smooth="yes"/>
      <point x="561" y="1335"/>
      <point x="665" y="1431"/>
      <point x="665" y="1559" type="curve" smooth="yes"/>
      <point x="665" y="1686"/>
      <point x="559" y="1784"/>
      <point x="434" y="1784" type="curve" smooth="yes"/>
      <point x="308" y="1784"/>
      <point x="210" y="1686"/>
      <point x="210" y="1559" type="curve" smooth="yes"/>
      <point x="210" y="1436"/>
      <point x="304" y="1335"/>
    </contour>
  </outline>
</glyph>
<glyph name="l" format="1">
  <advance width="715"/>
  <unicode hex="006C"/>
  <outline>
    <contour>
      <point x="155" y="0" type="line"/>
      <point x="567" y="0" type="line"/>
      <point x="567" y="1647" type="line"/>
      <point x="155" y="1578" type="line"/>
    </contour>
    <contour>
      <point x="340" y="1578" type="move" name="top"/>
    </contour>
    <contour>
      <point x="369" y="0" type="move" name="bot"/>
    </contour>
  </outline>
</glyph>
<glyph name="q" format="1">
  <advance width="1389"/>
  <unicode hex="0071"/>
  <outline>
    <contour>
      <point x="1243" y="-525" type="line"/>
      <point x="1243" y="1162" type="line"/>
      <point x="957" y="1162" type="line"/>
      <point x="904.942" y="1044.06" type="line"/>
      <point x="793.225" y="1139.41"/>
      <point x="663.646" y="1180"/>
      <point x="525" y="1180" type="curve" smooth="yes"/>
      <point x="268" y="1180"/>
      <point x="82.0001" y="978"/>
      <point x="82.0001" y="588" type="curve" smooth="yes"/>
      <point x="82.0001" y="168"/>
      <point x="329" y="-18.0001"/>
      <point x="575" y="-18.0001" type="curve" smooth="yes"/>
      <point x="670.105" y="-18.0001"/>
      <point x="755.385" y="10.6804"/>
      <point x="829" y="54.058" type="curve"/>
      <point x="829" y="-456" type="line"/>
    </contour>
    <contour>
      <point x="702" y="234" type="curve" smooth="yes"/>
      <point x="610" y="234"/>
      <point x="494" y="305"/>
      <point x="494" y="585" type="curve" smooth="yes"/>
      <point x="494" y="848"/>
      <point x="565" y="924"/>
      <point x="666" y="924" type="curve" smooth="yes"/>
      <point x="718.937" y="924"/>
      <point x="770.533" y="911.49"/>
      <point x="829.235" y="872.532" type="curve"/>
      <point x="829" y="276.662" type="line"/>
      <point x="787.625" y="249.782"/>
      <point x="744.692" y="234"/>
    </contour>
  </outline>
</glyph>
<glyph name="r" format="1">
  <advance width="958"/>
  <unicode hex="0072"/>
  <outline>
    <contour>
      <point x="150" y="0" type="line"/>
      <point x="562" y="0" type="line"/>
      <point x="562" y="736.631" type="line"/>
      <point x="678.172" y="794.985"/>
      <point x="819.228" y="836"/>
      <point x="938" y="836" type="curve"/>
      <point x="896" y="1173" type="line"/>
      <point x="745.924" y="1173"/>
      <point x="620.487" y="1087.03"/>
      <point x="526.894" y="980.376" type="curve"/>
      <point x="464" y="1162" type="line"/>
      <point x="150" y="1162" type="line"/>
    </contour>
    <contour>
      <point x="522" y="1162" type="move" name="top"/>
    </contour>
    <contour>
      <point x="499" y="0" type="move" name="bot"/>
    </contour>
  </outline>
</glyph>
<glyph name="t" format="1">
  <advance width="1026"/>
  <unicode hex="0074"/>
  <outline>
    <contour>
      <point x="639" y="-15" type="curve" smooth="yes"/>
      <point x="785" y="-15"/>
      <point x="909" y="19"/>
      <point x="982" y="66" type="curve"/>
      <point x="919" y="323" type="line"/>
      <point x="863" y="302"/>
      <point x="807" y="286"/>
      <point x="752" y="286" type="curve" smooth="yes"/>
      <point x="697" y="286"/>
      <point x="619" y="302"/>
      <point x="619" y="426" type="curve" smooth="yes"/>
      <point x="619" y="945" type="line"/>
      <point x="933" y="945" type="line"/>
      <point x="933" y="1162" type="line"/>
      <point x="619" y="1162" type="line"/>
      <point x="619" y="1612" type="line"/>
      <point x="246" y="1526" type="line"/>
      <point x="222" y="1162" type="line"/>
      <point x="16" y="1162" type="line"/>
      <point x="16" y="945" type="line"/>
      <point x="208" y="945" type="line"/>
      <point x="208" y="460" type="line" smooth="yes"/>
      <point x="208" y="54"/>
      <point x="448" y="-15"/>
    </contour>
    <contour>
      <point x="402" y="1578" type="move" name="top"/>
    </contour>
    <contour>
      <point x="609" y="0" type="move" name="bot"/>
    </contour>
  </outline>
</glyph>
<glyph name="y" format="1">
  <advance width="1273"/>
  <unicode hex="0079"/>
  <outline>
    <contour>
      <point x="303" y="-569" type="line"/>
      <point x="633" y="-569"/>
      <point x="763" y="-353"/>
      <point x="866" y="-30" type="curve" smooth="yes"/>
      <point x="1246" y="1162" type="line"/>
      <point x="850" y="1162" type="line"/>
      <point x="681" y="434" type="line"/>
      <point x="455" y="1162" type="line"/>
      <point x="29" y="1162" type="line"/>
      <point x="503" y="51" type="line"/>
      <point x="459" y="-125"/>
      <point x="445" y="-273"/>
      <point x="185" y="-294" type="curve"/>
    </contour>
    <contour>
      <point x="655" y="1162" type="move" name="top"/>
    </contour>
  </outline>
</glyph>
<glyph name="plusminus" format="1">
  <advance width="1243"/>
  <unicode hex="00B1"/>
  <outline>
    <contour>
      <point x="492" y="511" type="line"/>
      <point x="837" y="511" type="line"/>
      <point x="837" y="868" type="line"/>
      <point x="1142" y="868" type="line"/>
      <point x="1142" y="1162" type="line"/>
      <point x="837" y="1162" type="line"/>
      <point x="837" y="1514" type="line"/>
      <point x="492" y="1514" type="line"/>
      <point x="492" y="1162" type="line"/>
      <point x="189" y="1162" type="line"/>
      <point x="189" y="868" type="line"/>
      <point x="492" y="868" type="line"/>
    </contour>
    <contour>
      <point x="210" y="0" type="line"/>
      <point x="1120" y="0" type="line"/>
      <point x="1120" y="281" type="line"/>
      <point x="210" y="281" type="line"/>
    </contour>
  </outline>
</glyph>
<glyph name="onehalf" format="1">
  <advance width="2271"/>
  <unicode hex="00BD"/>
  <outline>
    <contour>
      <point x="1448" y="0" type="line"/>
      <point x="2154" y="0" type="line"/>
      <point x="2154" y="218" type="line"/>
      <point x="1866" y="218" type="line"/>
      <point x="1880.33" y="229.242"/>
      <point x="1894.15" y="240.23"/>
      <point x="1907.47" y="251.006" type="curve" smooth="yes"/>
      <point x="2075.44" y="386.885"/>
      <point x="2163" y="488.977"/>
      <point x="2163" y="640" type="curve" smooth="yes"/>
      <point x="2163" y="866"/>
      <point x="1989" y="961"/>
      <point x="1794" y="961" type="curve" smooth="yes"/>
      <point x="1651" y="961"/>
      <point x="1497" y="911"/>
      <point x="1391" y="824" type="curve"/>
      <point x="1490" y="625" type="line"/>
      <point x="1578" y="678"/>
      <point x="1676" y="711"/>
      <point x="1751" y="711" type="curve" smooth="yes"/>
      <point x="1823" y="711"/>
      <point x="1874" y="680"/>
      <point x="1874" y="607" type="curve" smooth="yes"/>
      <point x="1874" y="536"/>
      <point x="1820.75" y="469.75"/>
      <point x="1740.88" y="402" type="curve" smooth="yes"/>
      <point x="1661" y="334.25"/>
      <point x="1554.5" y="265"/>
      <point x="1448" y="188" type="curve"/>
    </contour>
    <contour>
      <point x="314" y="661" type="line"/>
      <point x="606" y="661" type="line"/>
      <point x="606" y="1578" type="line"/>
      <point x="409" y="1624" type="line"/>
      <point x="45" y="1457" type="line"/>
      <point x="134" y="1257" type="line"/>
      <point x="314" y="1346" type="line"/>
    </contour>
    <contour>
      <point x="672" y="-91" type="line"/>
      <point x="1671" y="1580" type="line"/>
      <point x="1460" y="1697" type="line"/>
      <point x="457" y="21" type="line"/>
    </contour>
  </outline>
</glyph>
<glyph name="threequarters" format="1">
  <advance width="2361"/>
  <unicode hex="00BE"/>
  <outline>
    <contour>
      <point x="2157" y="-18" type="line"/>
      <point x="2157" y="197" type="line"/>
      <point x="2291" y="197" type="line"/>
      <point x="2291" y="419" type="line"/>
      <point x="2157" y="419" type="line"/>
      <point x="2157" y="1068" type="line"/>
      <point x="1920" y="1130" type="line"/>
      <point x="1418" y="378" type="line"/>
      <point x="1455" y="197" type="line"/>
      <point x="1896" y="197" type="line"/>
      <point x="1896" y="0" type="line"/>
    </contour>
    <contour>
      <point x="870" y="-91" type="line"/>
      <point x="1869" y="1580" type="line"/>
      <point x="1658" y="1697" type="line"/>
      <point x="655" y="21" type="line"/>
    </contour>
    <contour>
      <point x="1701" y="417" type="line"/>
      <point x="1896" y="733" type="line"/>
      <point x="1896" y="417" type="line"/>
    </contour>
    <component base="three" xScale="0.82" yScale="0.82" xOffset="-19" yOffset="652"/>
  </outline>
</glyph>
<glyph name="kgreenlandic" format="1">
  <advance width="1396"/>
  <unicode hex="0138"/>
  <outline>
    <contour>
      <point x="146" y="0" type="line"/>
      <point x="559" y="0" type="line"/>
      <point x="559" y="370" type="line"/>
      <point x="642" y="454" type="line"/>
      <point x="919" y="0" type="line"/>
      <point x="1395" y="0" type="line"/>
      <point x="912" y="644" type="line"/>
      <point x="1408" y="1157" type="line"/>
      <point x="935" y="1157" type="line"/>
      <point x="559" y="723" type="line"/>
      <point x="559" y="1162" type="line"/>
      <point x="146" y="1162" type="line"/>
    </contour>
  </outline>
</glyph>
<glyph name="circumflex" format="1">
  <advance width="1365"/>
  <unicode hex="02C6"/>
  <outline>
    <contour>
      <point x="250" y="1304" type="line"/>
      <point x="581" y="1304" type="line"/>
      <point x="681" y="1687" type="line"/>
      <point x="790" y="1304" type="line"/>
      <point x="1125" y="1304" type="line"/>
      <point x="840" y="1847" type="line"/>
      <point x="525" y="1847" type="line"/>
    </contour>
    <contour>
      <point x="688" y="1162" type="move" name="_top"/>
    </contour>
  </outline>
</glyph>
<glyph name="caron" format="1">
  <advance width="1365"/>
  <unicode hex="02C7"/>
  <outline>
    <contour>
      <point x="525" y="1304" type="line"/>
      <point x="840" y="1304" type="line"/>
      <point x="1125" y="1847" type="line"/>
      <point x="790" y="1847" type="line"/>
      <point x="681" y="1464" type="line"/>
      <point x="581" y="1847" type="line"/>
      <point x="250" y="1847" type="line"/>
    </contour>
    <contour>
      <point x="688" y="1162" type="move" name="_top"/>
    </contour>
  </outline>
</glyph>
<glyph name="breve" format="1">
  <advance width="679"/>
  <unicode hex="02D8"/>
  <outline>
    <contour>
      <point x="352" y="1286" type="curve" smooth="yes"/>
      <point x="541" y="1286"/>
      <point x="736" y="1401"/>
      <point x="751" y="1657" type="curve"/>
      <point x="493" y="1657" type="line"/>
      <point x="491" y="1557"/>
      <point x="419" y="1509"/>
      <point x="353" y="1509" type="curve" smooth="yes"/>
      <point x="292" y="1509"/>
      <point x="222" y="1556"/>
      <point x="219" y="1657" type="curve"/>
      <point x="-38" y="1657" type="line"/>
      <point x="-23" y="1403"/>
      <point x="170" y="1286"/>
    </contour>
    <contour>
      <point x="351" y="1162" type="move" name="_top"/>
    </contour>
  </outline>
</glyph>
<glyph name="ring" format="1">
  <advance width="1069"/>
  <unicode hex="02DA"/>
  <outline>
    <contour>
      <point x="532" y="1454" type="curve" smooth="yes"/>
      <point x="458" y="1454"/>
      <point x="412" y="1501"/>
      <point x="412" y="1576" type="curve" smooth="yes"/>
      <point x="412" y="1650"/>
      <point x="458" y="1697"/>
      <point x="532" y="1697" type="curve" smooth="yes"/>
      <point x="612" y="1697"/>
      <point x="662" y="1650"/>
      <point x="662" y="1576" type="curve" smooth="yes"/>
      <point x="662" y="1501"/>
      <point x="612" y="1454"/>
    </contour>
    <contour>
      <point x="532" y="1311" type="curve" smooth="yes"/>
      <point x="713" y="1311"/>
      <point x="827" y="1413"/>
      <point x="827" y="1576" type="curve" smooth="yes"/>
      <point x="827" y="1738"/>
      <point x="713" y="1840"/>
      <point x="532" y="1840" type="curve" smooth="yes"/>
      <point x="358" y="1840"/>
      <point x="248" y="1738"/>
      <point x="248" y="1576" type="curve" smooth="yes"/>
      <point x="248" y="1413"/>
      <point x="358" y="1311"/>
    </contour>
    <contour>
      <point x="528" y="1162" type="move" name="_top"/>
    </contour>
    <contour>
      <point x="534" y="1666" type="move" name="top"/>
    </contour>
  </outline>
</glyph>
<glyph name="uni0311" format="1">
  <advance width="679"/>
  <unicode hex="0311"/>
  <outline>
    <contour>
      <point x="-38" y="1286" type="curve"/>
      <point x="219" y="1286" type="line"/>
      <point x="222" y="1387"/>
      <point x="292" y="1434"/>
      <point x="353" y="1434" type="curve" smooth="yes"/>
      <point x="419" y="1434"/>
      <point x="491" y="1386"/>
      <point x="493" y="1286" type="curve"/>
      <point x="751" y="1286" type="line"/>
      <point x="736" y="1542"/>
      <point x="541" y="1657"/>
      <point x="352" y="1657" type="curve" smooth="yes"/>
      <point x="170" y="1657"/>
      <point x="-23" y="1540"/>
    </contour>
    <contour>
      <point x="351" y="1162" type="move" name="_top"/>
    </contour>
  </outline>
</glyph>
<glyph name="emdash" format="1">
  <advance width="2381"/>
  <unicode hex="2014"/>
  <outline>
    <contour>
      <point x="169" y="581" type="line"/>
      <point x="2194" y="581" type="line"/>
      <point x="2194" y="889" type="line"/>
      <point x="169" y="889" type="line"/>
    </contour>
  </outline>
</glyph>
<glyph name="afii00208" format="1">
  <advance width="4096"/>
  <unicode hex="2015"/>
  <outline>
    <contour>
      <point x="169" y="601" type="line"/>
      <point x="3908" y="601" type="line"/>
      <point x="3908" y="883" type="line"/>
      <point x="169" y="883" type="line"/>
    </contour>
  </outline>
</glyph>
